# xmcd
#
# Track frame offsets:
#	150
#	16855
#	38987
#	53545
#	74989
#	90371
#	110377
#	124496
#	143223
#	163300
#	190531
#	206278
#	227629
#	243273
#
# Disc length: 3511 seconds
#
# Revision: 1
# Processed by: cddbd v1.5.1PL2 Copyright (c) Steve Scherf et al.
# Submitted via: audiograbber 1.83.01
#
DISCID=bc0db50e
DTITLE=Apocalyptca - Amplified // A Decade Of Reinventing The Cello
DYEAR=2006
DGENRE=Instrumental Rock
TTITLE0=Enter Sandman
TTITLE1=Harmageddon
TTITLE2=Refuse-Resist
TTITLE3=Nothing Else Matters
TTITLE4=Path Vol. 2 (Feat. Sandra Nasic)
TTITLE5=Cohkka
TTITLE6=Life Burns (Feat. Lauri Ylönen)
TTITLE7=Somewhere Around Nothing
TTITLE8=Bittersweet (Feat. Lauri Ylönen and Ville Valo)
TTITLE9=Master Of Puppets
TTITLE10=Hall Of The Mountain King
TTITLE11=Seemann (Feat. Nina Hagen)
TTITLE12=Quutamo
TTITLE13=Repressed (Feat. Matt Tuck and Max Cavalera)
EXTD=
EXTT0=
EXTT1=
EXTT2=
EXTT3=
EXTT4=
EXTT5=
EXTT6=
EXTT7=
EXTT8=
EXTT9=
EXTT10=
EXTT11=
EXTT12=
EXTT13=
PLAYORDER=
